<svg width="76" height="65" viewBox="0 0 76 65" fill="none" xmlns="http://www.w3.org/2000/svg">
<path d="M72.4582 20.8044C70.9123 17.261 54.0653 21.1918 34.8295 29.584C15.5937 37.9763 1.25324 47.6521 2.79918 51.1956" stroke="#C40000" stroke-width="5"/>
<path d="M64.9784 13.6C64.6798 20.8107 64.5304 28.5333 64.5304 36.768C64.5304 45.0453 64.6798 52.7893 64.9784 60H42.0664L26.5784 25.056L27.7304 60H11.2824C11.6238 51.7227 11.7944 43.9787 11.7944 36.768C11.7944 29.6 11.6238 21.8773 11.2824 13.6H34.8344L50.3864 49.504L49.2984 13.6H64.9784Z" fill="#E3B505"/>
<path d="M72.4582 20.8044C74.0042 24.3479 59.6637 34.0237 40.4279 42.416C21.1921 50.8082 4.34514 54.739 2.79919 51.1956" stroke="#C40000" stroke-width="5"/>
<mask id="mask0_2_9" style="mask-type:alpha" maskUnits="userSpaceOnUse" x="10" y="11" width="56" height="54">
<rect x="48.6287" y="12" width="17" height="53" fill="#D9D9D9"/>
<rect x="10.6287" y="11" width="18" height="53" fill="#D9D9D9"/>
</mask>
<g mask="url(#mask0_2_9)">
<path d="M64.9784 13.6C64.6798 20.8107 64.5304 28.5333 64.5304 36.768C64.5304 45.0453 64.6798 52.7893 64.9784 60H42.0664L26.5784 25.056L27.7304 60H11.2824C11.6238 51.7227 11.7944 43.9787 11.7944 36.768C11.7944 29.6 11.6238 21.8773 11.2824 13.6H34.8344L50.3864 49.504L49.2984 13.6H64.9784Z" fill="#E3B505"/>
</g>
</svg>
