<svg width="619" height="55" viewBox="0 0 619 55" fill="none" xmlns="http://www.w3.org/2000/svg">
<path d="M93.3868 54.64C86.0908 54.64 80.7148 52.976 77.2588 49.648C73.8454 46.2773 72.1388 41.8613 72.1388 36.4C72.1388 31.0667 73.8454 26.736 77.2588 23.408C80.7148 20.08 86.0908 18.416 93.3868 18.416C98.2934 18.416 102.389 19.2267 105.675 20.848C109.003 22.4267 111.456 24.5813 113.035 27.312C114.613 30 115.403 33.0293 115.403 36.4C115.403 41.904 113.568 46.32 109.899 49.648C106.272 52.976 100.768 54.64 93.3868 54.64ZM93.6428 43.76C96.4161 43.76 98.4854 43.0987 99.8508 41.776C101.216 40.4533 101.899 38.6827 101.899 36.464C101.899 34.3733 101.216 32.6667 99.8508 31.344C98.4854 29.9787 96.4161 29.296 93.6428 29.296C90.8694 29.296 88.8428 29.9573 87.5628 31.28C86.2828 32.6027 85.6428 34.3307 85.6428 36.464C85.6428 38.6827 86.2828 40.4533 87.5628 41.776C88.8428 43.0987 90.8694 43.76 93.6428 43.76ZM144.864 54C145.12 47.728 145.248 41.9467 145.248 36.656C145.248 34.7787 144.778 33.2853 143.84 32.176C142.944 31.0667 141.792 30.512 140.384 30.512C138.976 30.512 137.781 31.152 136.8 32.432C135.818 33.6693 135.242 35.376 135.072 37.552C134.986 40.7947 134.944 43.0987 134.944 44.464C134.944 47.3653 135.029 50.544 135.2 54H119.904C120.245 47.856 120.416 42.0533 120.416 36.592C120.416 31.1307 120.245 25.2853 119.904 19.056C122.72 19.184 124.874 19.248 126.368 19.248C127.946 19.248 130.101 19.184 132.832 19.056L134.688 28.464C135.669 25.0507 137.205 22.5333 139.296 20.912C141.386 19.248 143.818 18.416 146.592 18.416C149.152 18.416 151.37 18.992 153.248 20.144C155.125 21.2533 156.533 22.768 157.472 24.688C158.453 26.608 158.944 28.7627 158.944 31.152V40.368C158.944 46.0427 159.05 50.5867 159.264 54H144.864ZM185.076 54.64C181.492 54.64 177.844 54.1493 174.132 53.168C170.462 52.144 167.006 50.608 163.764 48.56L170.484 39.408C172.446 40.816 174.814 41.9253 177.588 42.736C180.361 43.504 182.75 43.888 184.756 43.888C186.676 43.888 188.148 43.632 189.172 43.12C190.238 42.5653 190.772 41.8613 190.772 41.008C190.772 40.3253 190.516 39.792 190.004 39.408C189.492 39.024 188.788 38.832 187.892 38.832C187.337 38.832 186.697 38.8533 185.972 38.896C185.289 38.9387 184.734 38.9813 184.308 39.024C182.089 39.28 179.806 39.408 177.46 39.408C173.662 39.408 170.569 38.704 168.18 37.296C165.833 35.8453 164.66 33.4987 164.66 30.256C164.66 26.5013 166.43 23.6 169.972 21.552C173.513 19.4613 178.718 18.416 185.588 18.416C188.958 18.416 192.35 18.9067 195.764 19.888C199.22 20.8267 202.27 22.256 204.916 24.176L197.556 31.6C195.124 30.32 192.841 29.424 190.708 28.912C188.617 28.3573 186.505 28.08 184.372 28.08C182.878 28.08 181.598 28.3787 180.532 28.976C179.465 29.5733 178.932 30.256 178.932 31.024C178.932 31.6213 179.145 32.0907 179.572 32.432C180.041 32.7733 180.638 32.944 181.364 32.944C182.089 32.944 183.092 32.88 184.372 32.752C187.486 32.5387 189.812 32.432 191.348 32.432C195.785 32.432 199.22 33.1787 201.652 34.672C204.084 36.1653 205.3 38.448 205.3 41.52C205.3 46.128 203.508 49.4773 199.924 51.568C196.34 53.616 191.39 54.64 185.076 54.64ZM243.635 38H222.771C223.112 39.8773 223.944 41.4133 225.267 42.608C226.632 43.76 228.552 44.336 231.027 44.336C232.819 44.336 234.504 43.9947 236.083 43.312C237.661 42.5867 238.92 41.584 239.859 40.304C242.717 41.712 246.515 43.2267 251.251 44.848C249.928 47.8347 247.517 50.224 244.019 52.016C240.563 53.7653 236.04 54.64 230.451 54.64C223.197 54.64 217.821 52.976 214.323 49.648C210.867 46.2773 209.139 41.8613 209.139 36.4C209.139 31.0667 210.867 26.736 214.323 23.408C217.779 20.08 223.155 18.416 230.451 18.416C234.803 18.416 238.579 19.1413 241.779 20.592C244.979 22.0427 247.432 24.0693 249.139 26.672C250.845 29.232 251.699 32.176 251.699 35.504C251.699 36.6133 251.656 37.4453 251.571 38H243.635ZM231.347 28.08C229.213 28.08 227.464 28.4853 226.099 29.296C224.733 30.1067 223.773 31.216 223.219 32.624H238.323C237.811 31.2587 236.979 30.1707 235.827 29.36C234.675 28.5067 233.181 28.08 231.347 28.08ZM281.114 54C281.37 47.728 281.498 41.9467 281.498 36.656C281.498 34.7787 281.028 33.2853 280.09 32.176C279.194 31.0667 278.042 30.512 276.634 30.512C275.226 30.512 274.031 31.152 273.05 32.432C272.068 33.6693 271.492 35.376 271.322 37.552C271.236 40.7947 271.194 43.0987 271.194 44.464C271.194 47.3653 271.279 50.544 271.45 54H256.154C256.495 47.856 256.666 42.0533 256.666 36.592C256.666 31.1307 256.495 25.2853 256.154 19.056C258.97 19.184 261.124 19.248 262.618 19.248C264.196 19.248 266.351 19.184 269.082 19.056L270.938 28.464C271.919 25.0507 273.455 22.5333 275.546 20.912C277.636 19.248 280.068 18.416 282.842 18.416C285.402 18.416 287.62 18.992 289.498 20.144C291.375 21.2533 292.783 22.768 293.722 24.688C294.703 26.608 295.194 28.7627 295.194 31.152V40.368C295.194 46.0427 295.3 50.5867 295.514 54H281.114ZM321.326 54.64C317.742 54.64 314.094 54.1493 310.382 53.168C306.712 52.144 303.256 50.608 300.014 48.56L306.734 39.408C308.696 40.816 311.064 41.9253 313.838 42.736C316.611 43.504 319 43.888 321.006 43.888C322.926 43.888 324.398 43.632 325.422 43.12C326.488 42.5653 327.022 41.8613 327.022 41.008C327.022 40.3253 326.766 39.792 326.254 39.408C325.742 39.024 325.038 38.832 324.142 38.832C323.587 38.832 322.947 38.8533 322.222 38.896C321.539 38.9387 320.984 38.9813 320.558 39.024C318.339 39.28 316.056 39.408 313.71 39.408C309.912 39.408 306.819 38.704 304.43 37.296C302.083 35.8453 300.91 33.4987 300.91 30.256C300.91 26.5013 302.68 23.6 306.222 21.552C309.763 19.4613 314.968 18.416 321.838 18.416C325.208 18.416 328.6 18.9067 332.014 19.888C335.47 20.8267 338.52 22.256 341.166 24.176L333.806 31.6C331.374 30.32 329.091 29.424 326.958 28.912C324.867 28.3573 322.755 28.08 320.622 28.08C319.128 28.08 317.848 28.3787 316.782 28.976C315.715 29.5733 315.182 30.256 315.182 31.024C315.182 31.6213 315.395 32.0907 315.822 32.432C316.291 32.7733 316.888 32.944 317.614 32.944C318.339 32.944 319.342 32.88 320.622 32.752C323.736 32.5387 326.062 32.432 327.598 32.432C332.035 32.432 335.47 33.1787 337.902 34.672C340.334 36.1653 341.55 38.448 341.55 41.52C341.55 46.128 339.758 49.4773 336.174 51.568C332.59 53.616 327.64 54.64 321.326 54.64ZM354.605 15.28C351.917 15.28 349.911 14.6187 348.589 13.296C347.309 11.9733 346.669 10.2453 346.669 8.112C346.669 6.02133 347.309 4.29333 348.589 2.928C349.911 1.56266 351.917 0.879997 354.605 0.879997C357.165 0.879997 359.127 1.584 360.493 2.992C361.858 4.35733 362.541 6.064 362.541 8.112C362.541 10.2453 361.879 11.9733 360.557 13.296C359.234 14.6187 357.25 15.28 354.605 15.28ZM347.181 54C347.479 47.1307 347.629 41.456 347.629 36.976C347.629 31.6427 347.458 25.6693 347.117 19.056H362.477C362.135 25.4133 361.965 31.3867 361.965 36.976C361.965 41.6693 362.114 47.344 362.413 54H347.181ZM381.271 36.528C381.356 38.704 382.039 40.4533 383.319 41.776C384.641 43.0987 386.583 43.76 389.143 43.76C390.551 43.76 391.809 43.504 392.919 42.992C394.028 42.4373 395.052 41.6267 395.991 40.56C399.617 41.968 403.863 43.184 408.727 44.208C407.319 47.4933 404.929 50.0533 401.559 51.888C398.231 53.7227 393.9 54.64 388.567 54.64C381.441 54.64 376.172 52.976 372.759 49.648C369.345 46.32 367.639 41.9467 367.639 36.528C367.639 31.1093 369.345 26.736 372.759 23.408C376.172 20.08 381.441 18.416 388.567 18.416C393.9 18.416 398.231 19.3333 401.559 21.168C404.929 23.0027 407.319 25.5627 408.727 28.848C404.929 29.6587 400.684 30.8747 395.991 32.496C395.052 31.4293 394.028 30.64 392.919 30.128C391.809 29.5733 390.551 29.296 389.143 29.296C386.583 29.296 384.641 29.9573 383.319 31.28C382.039 32.6027 381.356 34.352 381.271 36.528ZM454.553 43.376C454.553 44.8267 454.723 45.8507 455.065 46.448C455.406 47.0453 456.089 47.472 457.113 47.728L456.857 53.744C455.491 53.9573 454.297 54.1067 453.273 54.192C452.291 54.2773 450.969 54.32 449.305 54.32C445.635 54.32 443.203 53.5093 442.009 51.888C440.814 50.224 440.217 48.112 440.217 45.552V43.952C438.979 47.4507 437.166 50.0533 434.777 51.76C432.43 53.4667 429.422 54.32 425.753 54.32C421.486 54.32 418.265 53.4667 416.089 51.76C413.955 50.0533 412.889 47.5147 412.889 44.144C412.889 41.3707 413.806 39.1947 415.641 37.616C417.475 36.0373 420.313 34.9493 424.153 34.352C420.91 32.048 417.667 30.0427 414.425 28.336C416.985 25.0933 419.907 22.64 423.193 20.976C426.478 19.2693 430.467 18.416 435.161 18.416C441.731 18.416 446.595 19.8453 449.753 22.704C452.953 25.52 454.553 29.872 454.553 35.76V43.376ZM436.505 29.68C434.329 29.68 432.409 30.0427 430.745 30.768C429.081 31.4933 427.587 32.5813 426.265 34.032C428.825 33.7333 432.025 33.584 435.865 33.584C437.443 33.584 438.553 33.392 439.193 33.008C439.833 32.624 440.153 32.1333 440.153 31.536C440.153 31.024 439.833 30.5973 439.193 30.256C438.553 29.872 437.657 29.68 436.505 29.68ZM429.785 43.888C432.174 43.888 434.329 43.44 436.249 42.544C438.169 41.6053 439.491 40.3893 440.217 38.896V37.232C439.193 37.744 438.062 38.1493 436.825 38.448C435.587 38.704 434.094 38.96 432.345 39.216L430.041 39.6C427.651 40.0693 426.457 40.88 426.457 42.032C426.457 43.2693 427.566 43.888 429.785 43.888ZM476.006 28.4C475.964 30.96 475.942 34.8853 475.942 40.176C475.942 46.5333 475.985 51.1413 476.07 54H460.966L461.03 46.768C461.116 38.832 461.158 32.7093 461.158 28.4C461.158 24.304 461.116 18.5013 461.03 10.992L460.966 4.08H476.07C475.985 10.1387 475.942 15.088 475.942 18.928C475.942 23.1947 475.964 26.352 476.006 28.4ZM487.36 54.64C485.483 54.64 483.883 53.9787 482.56 52.656C481.238 51.2907 480.576 49.6693 480.576 47.792C480.576 45.9147 481.238 44.3147 482.56 42.992C483.883 41.6693 485.483 41.008 487.36 41.008C489.195 41.008 490.774 41.6907 492.096 43.056C493.462 44.3787 494.144 45.9573 494.144 47.792C494.144 49.6693 493.462 51.2907 492.096 52.656C490.774 53.9787 489.195 54.64 487.36 54.64ZM523.614 54C523.87 47.728 523.998 41.9467 523.998 36.656C523.998 34.7787 523.528 33.2853 522.59 32.176C521.694 31.0667 520.542 30.512 519.134 30.512C517.726 30.512 516.531 31.152 515.55 32.432C514.568 33.6693 513.992 35.376 513.822 37.552C513.736 40.7947 513.694 43.0987 513.694 44.464C513.694 47.3653 513.779 50.544 513.95 54H498.654C498.995 47.856 499.166 42.0533 499.166 36.592C499.166 31.1307 498.995 25.2853 498.654 19.056C501.47 19.184 503.624 19.248 505.118 19.248C506.696 19.248 508.851 19.184 511.582 19.056L513.438 28.464C514.419 25.0507 515.955 22.5333 518.046 20.912C520.136 19.248 522.568 18.416 525.342 18.416C527.902 18.416 530.12 18.992 531.998 20.144C533.875 21.2533 535.283 22.768 536.222 24.688C537.203 26.608 537.694 28.7627 537.694 31.152V40.368C537.694 46.0427 537.8 50.5867 538.014 54H523.614ZM577.01 38H556.146C556.487 39.8773 557.319 41.4133 558.642 42.608C560.007 43.76 561.927 44.336 564.402 44.336C566.194 44.336 567.879 43.9947 569.458 43.312C571.036 42.5867 572.295 41.584 573.234 40.304C576.092 41.712 579.89 43.2267 584.626 44.848C583.303 47.8347 580.892 50.224 577.394 52.016C573.938 53.7653 569.415 54.64 563.826 54.64C556.572 54.64 551.196 52.976 547.698 49.648C544.242 46.2773 542.514 41.8613 542.514 36.4C542.514 31.0667 544.242 26.736 547.698 23.408C551.154 20.08 556.53 18.416 563.826 18.416C568.178 18.416 571.954 19.1413 575.154 20.592C578.354 22.0427 580.807 24.0693 582.514 26.672C584.22 29.232 585.074 32.176 585.074 35.504C585.074 36.6133 585.031 37.4453 584.946 38H577.01ZM564.722 28.08C562.588 28.08 560.839 28.4853 559.474 29.296C558.108 30.1067 557.148 31.216 556.594 32.624H571.698C571.186 31.2587 570.354 30.1707 569.202 29.36C568.05 28.5067 566.556 28.08 564.722 28.08ZM618.521 30.512C614.595 30.256 611.011 30.064 607.769 29.936L607.705 36.72C607.705 39.024 608.195 40.8373 609.177 42.16C610.201 43.44 611.993 44.08 614.553 44.08C615.534 44.08 616.473 43.9947 617.369 43.824C617.198 45.4027 617.113 47.0027 617.113 48.624C617.113 49.392 617.155 51.1413 617.241 53.872C615.363 54.2133 613.785 54.4267 612.505 54.512C611.225 54.5973 609.561 54.64 607.513 54.64C602.521 54.64 598.979 53.4453 596.889 51.056C594.841 48.624 593.817 45.2533 593.817 40.944L593.881 30.128C591.875 30.2133 589.785 30.3413 587.609 30.512V19.184C589.827 19.184 591.705 18.48 593.241 17.072C594.777 15.664 595.694 13.9787 595.993 12.016H613.401C611.225 15.0027 608.814 17.392 606.169 19.184H618.521V30.512Z" fill="#E3B505"/>
<path d="M72.4582 14.8044C70.9123 11.261 54.0653 15.1918 34.8295 23.584C15.5937 31.9763 1.25324 41.6521 2.79918 45.1956" stroke="#C40000" stroke-width="5"/>
<path d="M64.9784 7.6C64.6798 14.8107 64.5304 22.5333 64.5304 30.768C64.5304 39.0453 64.6798 46.7893 64.9784 54H42.0664L26.5784 19.056L27.7304 54H11.2824C11.6238 45.7227 11.7944 37.9787 11.7944 30.768C11.7944 23.6 11.6238 15.8773 11.2824 7.6H34.8344L50.3864 43.504L49.2984 7.6H64.9784Z" fill="#E3B505"/>
<path d="M72.4582 14.8044C74.0042 18.3479 59.6637 28.0237 40.4279 36.416C21.1921 44.8082 4.34514 48.739 2.79919 45.1956" stroke="#C40000" stroke-width="5"/>
<mask id="mask0_0_1" style="mask-type:alpha" maskUnits="userSpaceOnUse" x="10" y="5" width="56" height="54">
<rect x="48.6287" y="6" width="17" height="53" fill="#D9D9D9"/>
<rect x="10.6287" y="5" width="18" height="53" fill="#D9D9D9"/>
</mask>
<g mask="url(#mask0_0_1)">
<path d="M64.9784 7.6C64.6798 14.8107 64.5304 22.5333 64.5304 30.768C64.5304 39.0453 64.6798 46.7893 64.9784 54H42.0664L26.5784 19.056L27.7304 54H11.2824C11.6238 45.7227 11.7944 37.9787 11.7944 30.768C11.7944 23.6 11.6238 15.8773 11.2824 7.6H34.8344L50.3864 43.504L49.2984 7.6H64.9784Z" fill="#E3B505"/>
</g>
</svg>
